# xmcd
#
# Track frame offsets:
#	150
#	11849
#	25025
#	37543
#	50004
#	62718
#	74589
#	85201
#	99652
#	110884
#	121791
#	133474
#	145469
#	147822
#	151264
#	162845
#	177376
#	187991
#	207182
#	227037
#	239454
#	246142
#	259383
#	297323
#	317807
#	331107
#
# Disc length: 4460 seconds
#
# Revision: 1
# Processed by: cddbd v1.5.2PL0 Copyright (c) Steve Scherf et al.
# Submitted via: audiograbber 1.83.01
#
DISCID=81116a1a
DTITLE=Slim Whitman - Happy anniversary - 25th anniversary concert
DYEAR=1900
DGENRE=
TTITLE0=Happy anniversary
TTITLE1=She things I still care
TTITLE2=Hello love
TTITLE3=There goes my everything
TTITLE4=Room full of roses
TTITLE5=Making believe
TTITLE6=It's all in the game
TTITLE7=If you love me (let me know)
TTITLE8=Hold me
TTITLE9=The most beautiful girl in the world
TTITLE10=What I had with you
TTITLE11=Easy lovin'
TTITLE12=Opening announcement
TTITLE13=I'm casting my lasso towards the sky
TTITLE14=Seranade
TTITLE15=Cool water
TTITLE16=Cattle call
TTITLE17=The twelfth or never
TTITLE18=Love song of the waterfall
TTITLE19=Got the all overs for you (all over me)
TTITLE20=There's a love knot in my lariat
TTITLE21=Poor little Angelina
TTITLE22=Medley: China doll/Indian love call/Rose Marie
TTITLE23=The old spinning wheel
TTITLE24=I'll take you home again Kathleen
TTITLE25=When I grow to old to dream
EXTD=
EXTT0=
EXTT1=
EXTT2=
EXTT3=
EXTT4=
EXTT5=
EXTT6=
EXTT7=
EXTT8=
EXTT9=
EXTT10=
EXTT11=
EXTT12=
EXTT13=
EXTT14=
EXTT15=
EXTT16=
EXTT17=
EXTT18=
EXTT19=
EXTT20=
EXTT21=
EXTT22=
EXTT23=
EXTT24=
EXTT25=
PLAYORDER=
